<svg width="266" height="236" viewBox="0 0 266 236" fill="none" xmlns="http://www.w3.org/2000/svg">
<rect width="266" height="236" fill="white"/>
<path d="M53.3899 60.0916C52.919 58.4904 54.1193 56.8862 55.7884 56.8862H139.928C141.06 56.8862 142.051 57.6475 142.343 58.7416L173.556 175.701C173.98 177.288 172.784 178.845 171.141 178.845H90.1864C89.0774 178.845 88.1009 178.115 87.788 177.051L53.3899 60.0916Z" stroke="url(#paint0_linear)" stroke-width="3"/>
<path d="M90.809 167.259C91.5028 168.759 91.4749 172.453 95.309 172.453C97.0026 172.453 139.527 172.453 163.309 172.453C167.809 172.453 166.809 169.953 165.914 167.453" stroke="#A8ADB3" stroke-width="2" stroke-linecap="round"/>
<path d="M107.511 102.359C104.039 102.305 101.348 103.151 99.4397 104.895C97.5311 106.639 96.3827 108.609 95.9784 110.802L101.338 112.9C101.623 111.316 102.313 109.984 103.386 108.898C104.465 107.811 106.12 107.287 108.347 107.319C110.616 107.351 112.628 107.977 114.369 109.181C116.116 110.39 117.151 111.969 117.48 113.927C117.841 116.052 117.334 117.748 115.965 119.006C114.595 120.268 112.73 120.884 110.374 120.846L106.966 120.798L107.786 125.641L111.582 125.7C113.296 125.726 114.93 126.085 116.477 126.781C118.03 127.476 119.324 128.423 120.359 129.617C121.394 130.815 122.03 132.126 122.273 133.555C122.521 135.027 122.332 136.359 121.696 137.547C121.065 138.74 120.095 139.666 118.801 140.313C117.502 140.966 116.03 141.282 114.407 141.26C112.175 141.228 110.126 140.543 108.255 139.211C106.384 137.879 104.907 136.022 103.818 133.646L99.2025 135.535C100.286 137.916 101.747 139.907 103.575 141.496C105.408 143.091 107.344 144.273 109.403 145.038C111.452 145.798 113.404 146.194 115.248 146.221C117.949 146.264 120.332 145.75 122.397 144.68C124.462 143.61 125.982 142.101 126.958 140.164C127.934 138.226 128.22 136.027 127.805 133.576C127.4 131.168 126.338 129.066 124.624 127.268C122.909 125.464 120.887 124.121 118.553 123.233L118.51 122.992C120.079 122.163 121.319 120.996 122.219 119.503C123.12 118.01 123.389 116.18 123.022 114.013C122.656 111.851 121.734 109.882 120.262 108.106C118.785 106.334 116.935 104.938 114.714 103.932C112.482 102.915 110.083 102.396 107.511 102.359Z" fill="#80868B"/>
<path d="M56.6648 61.1659C55.0734 59.596 56.1851 56.8862 58.4205 56.8862H137.817C138.473 56.8862 139.103 57.1445 139.571 57.6052L225.697 142.443C227.291 144.013 226.179 146.724 223.943 146.724H144.418C143.76 146.724 143.13 146.466 142.662 146.004L56.6648 61.1659Z" fill="white" stroke="url(#paint1_linear)" stroke-width="3"/>
<path d="M142.309 136.647C144.309 138.953 145.975 141.647 149.809 141.647C151.503 141.647 191.027 141.647 214.809 141.647C219.309 141.647 214.809 138.953 213.309 137.453" stroke="#A8ADB3" stroke-width="2" stroke-linecap="round"/>
<path d="M136.675 96.6013C133.737 96.6013 131.417 96.8882 129.72 97.4497C128.023 98.0111 126.863 98.691 126.239 99.4894C125.609 100.282 125.353 101.049 125.459 101.785L132.065 102.858C131.859 102.003 132.259 101.217 133.263 100.494C134.267 99.7701 136.089 99.4083 138.734 99.4083C140.742 99.4083 142.626 99.5955 144.379 99.9822C146.132 100.363 147.635 100.856 148.889 101.467C150.142 102.078 151.059 102.727 151.621 103.419C152.45 104.436 152.706 105.297 152.407 106.008C152.107 106.719 151.222 107.711 149.756 108.977C148.726 109.875 146.83 111.404 144.079 113.556C141.328 115.708 139.482 117.142 138.54 117.854L140.929 120.792H172.667L170.39 117.991H146.662L155.931 110.873C159.219 108.297 159.88 105.796 157.915 103.382C156.942 102.184 155.37 101.068 153.205 100.032C151.041 98.9966 148.514 98.167 145.633 97.5432C142.744 96.9132 139.763 96.6013 136.675 96.6013Z" fill="#80868B"/>
<path d="M59.9013 61.5998C57.5891 60.386 58.4518 56.8862 61.0632 56.8862H140.337C140.704 56.8862 141.066 56.9669 141.398 57.1225L233.408 100.242C235.828 101.376 235.02 105.006 232.348 105.006H143.207C142.802 105.006 142.403 104.908 142.045 104.719L59.9013 61.5998Z" fill="white" stroke="url(#paint2_linear)" stroke-width="3"/>
<path d="M144.235 74.0205H139.072L126.248 77.0812L133.171 78.5051L141.068 76.6229L164.596 88.9719H172.731L144.235 74.0205Z" fill="#80868B"/>
<path d="M85.469 180.345L51.4563 63.091C51.1339 61.9796 49.4959 62.2124 49.4959 63.3696L49.4959 179.345C49.4959 179.898 49.9436 180.345 50.4959 180.345L71.403 180.345" stroke="#A8ADB3" stroke-width="3" stroke-linejoin="round"/>
<path fill-rule="evenodd" clip-rule="evenodd" d="M72.6462 60.4831C74.928 60.2209 77.2833 57.8739 77.2833 54.1969C77.2833 50.2913 74.626 47.8862 72.2219 47.8862C69.8178 47.8862 67.1606 50.2912 67.1605 54.1968H64.1605C64.1606 49.0547 67.7698 44.8862 72.2219 44.8862C76.6741 44.8862 80.2833 49.0548 80.2833 54.1969C80.2833 59.1747 76.9011 63.2402 72.6462 63.495V60.4831Z" fill="#80868B"/>
<path fill-rule="evenodd" clip-rule="evenodd" d="M100.632 60.4831C102.914 60.2209 105.269 57.874 105.269 54.1969C105.269 50.2913 102.612 47.8862 100.208 47.8862C97.8038 47.8862 95.1466 50.2912 95.1465 54.1968H92.1465C92.1466 49.0547 95.7557 44.8862 100.208 44.8862C104.66 44.8862 108.269 49.0548 108.269 54.1969C108.269 59.1747 104.887 63.2402 100.632 63.495V60.4831Z" fill="#80868B"/>
<path fill-rule="evenodd" clip-rule="evenodd" d="M128.318 60.4831C130.6 60.2209 132.955 57.8739 132.955 54.1969C132.955 50.2913 130.298 47.8862 127.894 47.8862C125.489 47.8862 122.832 50.2912 122.832 54.1968H119.832C119.832 49.0547 123.441 44.8862 127.894 44.8862C132.346 44.8862 135.955 49.0548 135.955 54.1969C135.955 59.1747 132.573 63.2402 128.318 63.495V60.4831Z" fill="#80868B"/>
<defs>
<linearGradient id="paint0_linear" x1="50.4425" y1="117.866" x2="176.348" y2="117.866" gradientUnits="userSpaceOnUse">
<stop stop-color="#F8491B"/>
<stop offset="0.515625" stop-color="#F12F3F"/>
<stop offset="1" stop-color="#DC1860"/>
</linearGradient>
<linearGradient id="paint1_linear" x1="48.6703" y1="101.805" x2="233.704" y2="101.805" gradientUnits="userSpaceOnUse">
<stop stop-color="#F8491B"/>
<stop offset="0.515625" stop-color="#F12F3F"/>
<stop offset="1" stop-color="#DC1860"/>
</linearGradient>
<linearGradient id="paint2_linear" x1="44.8371" y1="80.9461" x2="250.309" y2="80.9461" gradientUnits="userSpaceOnUse">
<stop stop-color="#F8491B"/>
<stop offset="0.515625" stop-color="#F12F3F"/>
<stop offset="1" stop-color="#DC1860"/>
</linearGradient>
</defs>
</svg>
