<svg width="266" height="236" viewBox="0 0 266 236" fill="none" xmlns="http://www.w3.org/2000/svg">
<rect width="266" height="236" fill="white"/>
<mask id="mask0" mask-type="alpha" maskUnits="userSpaceOnUse" x="17" y="7" width="232" height="209">
<rect x="17" y="7" width="231.357" height="208.467" fill="url(#paint0_linear)"/>
</mask>
<g mask="url(#mask0)">
<path d="M102.78 59.414C90.131 62.932 78.5411 70.0326 74.3546 91.6191" stroke="#A8ADB3" stroke-width="2" stroke-linecap="round"/>
<path d="M89.1315 56.3041C82.2771 57.9639 73.1409 68.1157 70.434 77.929" stroke="#A8ADB3" stroke-width="2" stroke-linecap="round"/>
<mask id="path-5-inside-1" fill="white">
<path fill-rule="evenodd" clip-rule="evenodd" d="M166.943 106.038C167.072 106.314 166.806 106.608 166.518 106.509C166.26 106.419 166.003 106.652 166.053 106.921C166.396 108.763 166.273 110.719 165.599 112.613L156.234 138.944C155.282 141.621 153.331 143.825 150.789 145.096L97.6492 171.666C94.9587 173.011 91.8347 173.196 89.0044 172.177L75.756 167.409C70.0854 165.367 67.1131 159.143 69.0902 153.45L92.1581 87.0225C92.7705 85.2588 93.7868 83.7502 95.0674 82.5645C95.3684 82.2859 95.2811 81.7706 94.8937 81.6361C94.4623 81.4863 94.4229 80.8915 94.8308 80.6861L139.998 57.9384C142.015 56.923 144.471 57.7761 145.424 59.8224L166.943 106.038ZM128.665 98.0855C133.319 99.7018 138.403 97.239 140.019 92.5848C141.635 87.9305 139.172 82.8473 134.518 81.2311C129.864 79.6148 124.781 82.0776 123.164 86.7318C121.548 91.3861 124.011 96.4693 128.665 98.0855Z"/>
</mask>
<path d="M166.943 106.038L164.224 107.304L164.224 107.304L166.943 106.038ZM166.053 106.921L169.002 106.371L169.002 106.371L166.053 106.921ZM165.599 112.613L162.773 111.608L162.773 111.608L165.599 112.613ZM156.234 138.944L153.407 137.938L156.234 138.944ZM150.789 145.096L149.448 142.413L150.789 145.096ZM97.6492 171.666L98.9909 174.349L98.9909 174.349L97.6492 171.666ZM89.0044 172.177L87.9884 175L87.9884 175L89.0044 172.177ZM75.756 167.409L74.74 170.231L74.74 170.231L75.756 167.409ZM69.0902 153.45L71.9241 154.434L69.0902 153.45ZM92.1581 87.0225L89.3241 86.0384L92.1581 87.0225ZM95.0674 82.5645L97.1056 84.7658L97.1056 84.7658L95.0674 82.5645ZM94.8308 80.6861L96.1802 83.3655L96.1802 83.3655L94.8308 80.6861ZM139.998 57.9384L141.348 60.6178L141.348 60.6178L139.998 57.9384ZM145.424 59.8224L142.704 61.0888L142.704 61.0888L145.424 59.8224ZM165.534 109.343C168.325 110.312 170.91 107.45 169.663 104.771L164.224 107.304C163.233 105.177 165.286 102.905 167.502 103.675L165.534 109.343ZM169.002 106.371C169.347 108.221 167.588 110.056 165.534 109.343L167.502 103.675C164.931 102.782 162.658 105.083 163.104 107.471L169.002 106.371ZM168.426 113.619C169.282 111.213 169.44 108.72 169.002 106.371L163.104 107.471C163.353 108.807 163.265 110.225 162.773 111.608L168.426 113.619ZM159.06 139.949L168.426 113.619L162.773 111.608L153.407 137.938L159.06 139.949ZM152.131 147.779C155.365 146.162 157.849 143.356 159.06 139.949L153.407 137.938C152.715 139.885 151.296 141.489 149.448 142.413L152.131 147.779ZM98.9909 174.349L152.131 147.779L149.448 142.413L96.3076 168.983L98.9909 174.349ZM87.9884 175C91.5906 176.297 95.5666 176.061 98.9909 174.349L96.3076 168.983C94.3509 169.961 92.0788 170.096 90.0204 169.355L87.9884 175ZM74.74 170.231L87.9884 175L90.0204 169.355L76.772 164.586L74.74 170.231ZM66.2562 152.466C63.7399 159.712 67.5229 167.633 74.74 170.231L76.772 164.586C72.648 163.101 70.4863 158.575 71.9241 154.434L66.2562 152.466ZM89.3241 86.0384L66.2562 152.466L71.9241 154.434L94.992 88.0067L89.3241 86.0384ZM93.0292 80.3632C91.3964 81.8751 90.1019 83.7986 89.3241 86.0384L94.992 88.0067C95.4392 86.719 96.1773 85.6254 97.1056 84.7658L93.0292 80.3632ZM93.9096 84.4701C91.9573 83.7921 91.8272 81.4762 93.0292 80.3632L97.1056 84.7658C98.9095 83.0955 98.605 79.7491 95.8779 78.8021L93.9096 84.4701ZM93.4814 78.0067C90.7062 79.4044 90.9743 83.4508 93.9096 84.4701L95.8779 78.8021C97.9503 79.5218 98.1396 82.3787 96.1802 83.3655L93.4814 78.0067ZM138.649 55.259L93.4814 78.0067L96.1802 83.3655L141.348 60.6178L138.649 55.259ZM148.143 58.5561C146.476 54.9749 142.177 53.4821 138.649 55.259L141.348 60.6178C141.852 60.3639 142.466 60.5772 142.704 61.0888L148.143 58.5561ZM169.663 104.771L148.143 58.5561L142.704 61.0888L164.224 107.304L169.663 104.771ZM137.185 91.6006C136.112 94.6897 132.738 96.3243 129.649 95.2516L127.681 100.92C133.9 103.079 140.693 99.7883 142.853 93.5689L137.185 91.6006ZM133.534 84.065C136.623 85.1378 138.258 88.5116 137.185 91.6006L142.853 93.5689C145.013 87.3495 141.722 80.5568 135.502 78.3971L133.534 84.065ZM125.998 87.716C127.071 84.6269 130.445 82.9923 133.534 84.065L135.502 78.3971C129.283 76.2373 122.49 79.5283 120.33 85.7477L125.998 87.716ZM129.649 95.2516C126.56 94.1788 124.926 90.805 125.998 87.716L120.33 85.7477C118.171 91.9671 121.462 98.7597 127.681 100.92L129.649 95.2516Z" fill="url(#paint1_linear)" mask="url(#path-5-inside-1)"/>
<path d="M111.132 180.085L162.583 176.637L139.907 197.425C136.548 200.504 131.358 200.387 128.142 197.158L111.132 180.085Z" fill="white" stroke="url(#paint2_linear)" stroke-width="3"/>
<circle cx="131.462" cy="89.8626" r="14.3436" transform="rotate(-10.1746 131.462 89.8626)" stroke="#A8ADB3"/>
<line x1="135.06" y1="80.4314" x2="155.976" y2="15.841" stroke="#80868B" stroke-width="2.29819"/>
<path d="M76.957 153.778C76.5355 154.945 74.2191 158.803 74.9334 159.193C75.3367 159.412 93.0265 165.598 93.0265 165.598C93.0265 166.082 149.435 138.211 149.435 138.211" stroke="#A8ADB3" stroke-width="2" stroke-linecap="round"/>
<path d="M122.05 183.992C122.308 184.372 130.225 192.167 130.225 192.167C135.539 197.481 139.627 192.985 139.627 192.985" stroke="#A8ADB3" stroke-width="2" stroke-linecap="round"/>
<path fill-rule="evenodd" clip-rule="evenodd" d="M188.74 148.666C186.762 151.893 186.479 155.923 188.355 159.306C191.207 164.444 197.967 166.142 203.453 163.097C208.94 160.053 211.075 153.419 208.224 148.28C205.775 143.867 200.443 141.991 195.511 143.479L195.503 143.451L129.21 164.329C126.339 165.233 123.841 167.109 122.14 169.641L188.74 148.666ZM191.515 157.552C189.57 154.048 191.027 149.525 194.767 147.449C198.508 145.373 203.117 146.53 205.061 150.034C207.006 153.538 205.549 158.061 201.809 160.137C198.068 162.213 193.459 161.055 191.515 157.552Z" fill="#A8ADB3"/>
<path fill-rule="evenodd" clip-rule="evenodd" d="M184.458 140.953C180.673 140.923 177.103 139.031 175.227 135.649C172.375 130.51 174.511 123.876 179.997 120.832C185.484 117.787 192.243 119.485 195.095 124.624C197.544 129.037 196.314 134.553 192.443 137.952L192.462 137.973L139.669 183.179C137.383 185.137 134.469 186.263 131.421 186.368L184.458 140.953ZM178.385 133.895C180.33 137.399 184.938 138.556 188.679 136.481C192.42 134.405 193.876 129.882 191.932 126.378C189.987 122.874 185.379 121.717 181.638 123.792C177.897 125.868 176.441 130.391 178.385 133.895Z" fill="#A8ADB3"/>
</g>
<defs>
<linearGradient id="paint0_linear" x1="133.087" y1="24.1678" x2="132.679" y2="210.713" gradientUnits="userSpaceOnUse">
<stop stop-color="white" stop-opacity="0"/>
<stop offset="0.13126" stop-color="white"/>
<stop offset="0.501634" stop-color="white"/>
</linearGradient>
<linearGradient id="paint1_linear" x1="86.0738" y1="104.543" x2="159.542" y2="130.056" gradientUnits="userSpaceOnUse">
<stop stop-color="#F8491B"/>
<stop offset="0.515625" stop-color="#F12F3F"/>
<stop offset="1" stop-color="#DC1860"/>
</linearGradient>
<linearGradient id="paint2_linear" x1="124.758" y1="163.211" x2="149.732" y2="190.453" gradientUnits="userSpaceOnUse">
<stop stop-color="#F8491B"/>
<stop offset="0.515625" stop-color="#F12F3F"/>
<stop offset="1" stop-color="#DC1860"/>
</linearGradient>
</defs>
</svg>
