<svg width="266" height="236" viewBox="0 0 266 236" fill="none" xmlns="http://www.w3.org/2000/svg">
<rect width="266" height="236" fill="white"/>
<mask id="path-2-inside-1" fill="white">
<path fill-rule="evenodd" clip-rule="evenodd" d="M119.766 72.5154C118.661 72.5154 117.766 73.4108 117.766 74.5154V110.753H96.0822C95.16 110.753 94.7293 111.895 95.4218 112.504L133.093 145.629C133.471 145.961 134.036 145.961 134.414 145.629L172.086 112.504C172.778 111.895 172.347 110.753 171.425 110.753H150.441V74.5154C150.441 73.4108 149.546 72.5154 148.441 72.5154H119.766Z"/>
</mask>
<path d="M117.766 110.753V113.753H120.766V110.753H117.766ZM95.4218 112.504L97.4028 110.251L97.4028 110.251L95.4218 112.504ZM133.093 145.629L131.112 147.882L133.093 145.629ZM134.414 145.629L136.395 147.882L134.414 145.629ZM172.086 112.504L174.067 114.757V114.757L172.086 112.504ZM150.441 110.753H147.441V113.753H150.441V110.753ZM120.766 74.5154C120.766 75.0677 120.318 75.5154 119.766 75.5154V69.5154C117.004 69.5154 114.766 71.754 114.766 74.5154H120.766ZM120.766 110.753V74.5154H114.766V110.753H120.766ZM96.0822 113.753H117.766V107.753H96.0822V113.753ZM97.4028 110.251C98.7879 111.469 97.9265 113.753 96.0822 113.753V107.753C92.3935 107.753 90.6708 112.321 93.4408 114.757L97.4028 110.251ZM135.074 143.376L97.4028 110.251L93.4408 114.757L131.112 147.882L135.074 143.376ZM132.433 143.376C133.188 142.712 134.319 142.712 135.074 143.376L131.112 147.882C132.623 149.21 134.885 149.21 136.395 147.882L132.433 143.376ZM170.105 110.251L132.433 143.376L136.395 147.882L174.067 114.757L170.105 110.251ZM171.425 113.753C169.581 113.753 168.72 111.469 170.105 110.251L174.067 114.757C176.837 112.321 175.114 107.753 171.425 107.753V113.753ZM150.441 113.753H171.425V107.753H150.441V113.753ZM147.441 74.5154V110.753H153.441V74.5154H147.441ZM148.441 75.5154C147.889 75.5154 147.441 75.0677 147.441 74.5154H153.441C153.441 71.754 151.203 69.5154 148.441 69.5154V75.5154ZM119.766 75.5154H148.441V69.5154H119.766V75.5154Z" fill="#A8ADB3" mask="url(#path-2-inside-1)"/>
<rect x="85.0349" y="153.909" width="98.75" height="3.53731" rx="1.76866" fill="#A8ADB3"/>
<path d="M85.0349 155.678C85.0349 154.701 85.8267 153.909 86.8035 153.909H138.642V157.446H86.8035C85.8267 157.446 85.0349 156.654 85.0349 155.678Z" fill="url(#paint0_linear)"/>
<path fill-rule="evenodd" clip-rule="evenodd" d="M209 118C209 159.974 174.974 194 133 194C116.313 194 100.882 188.622 88.3464 179.505L175.214 54.7927C195.587 68.4258 209 91.6464 209 118ZM172.687 53.1726C161.136 46.0859 147.545 42 133 42C91.0264 42 57 76.0264 57 118C57 142.209 68.319 163.774 85.9534 177.692L172.687 53.1726ZM212 118C212 161.63 176.63 197 133 197C89.3695 197 54 161.63 54 118C54 74.3695 89.3695 39 133 39C176.63 39 212 74.3695 212 118Z" fill="url(#paint1_linear)"/>
<defs>
<linearGradient id="paint0_linear" x1="85.0349" y1="153.909" x2="88.0687" y2="168.215" gradientUnits="userSpaceOnUse">
<stop stop-color="#FF4C1D"/>
<stop offset="1" stop-color="#C01C49"/>
</linearGradient>
<linearGradient id="paint1_linear" x1="54" y1="39" x2="243.434" y2="97.9436" gradientUnits="userSpaceOnUse">
<stop stop-color="#FF4C1D"/>
<stop offset="1" stop-color="#C01C49"/>
</linearGradient>
</defs>
</svg>
