<svg width="266" height="236" viewBox="0 0 266 236" fill="none" xmlns="http://www.w3.org/2000/svg">
<rect width="266" height="236" fill="white"/>
<g clip-path="url(#clip0)">
<rect width="234.667" height="176" transform="translate(16 30)" fill="white"/>
<rect x="33.2927" y="-15.4864" width="41.6813" height="52.65" rx="3.29062" stroke="#A8ADB3" stroke-width="2.19375"/>
<rect x="38.0458" y="30.2168" width="11.7" height="2.19375" rx="0.73125" fill="#E8EAED"/>
<rect x="33.2927" y="48.1323" width="41.6813" height="52.65" rx="3.29062" stroke="#A8ADB3" stroke-width="2.19375"/>
<rect x="38.0458" y="88.7168" width="24.8625" height="2.19375" rx="0.73125" fill="#E8EAED"/>
<rect x="38.0458" y="93.8354" width="11.7" height="2.19375" rx="0.73125" fill="#E8EAED"/>
<path fill-rule="evenodd" clip-rule="evenodd" d="M71.6834 112.848H36.5834C35.3718 112.848 34.3896 113.83 34.3896 115.042V161.111C34.3896 162.322 35.3718 163.304 36.5834 163.304H71.6834C72.8949 163.304 73.8771 162.322 73.8771 161.111V115.042C73.8771 113.83 72.8949 112.848 71.6834 112.848ZM36.5834 110.654C34.1602 110.654 32.1959 112.619 32.1959 115.042V161.111C32.1959 163.534 34.1602 165.498 36.5834 165.498H71.6834C74.1065 165.498 76.0709 163.534 76.0709 161.111V115.042C76.0709 112.619 74.1065 110.654 71.6834 110.654H36.5834ZM38.0459 153.067C38.0459 152.663 38.3733 152.336 38.7771 152.336H62.1771C62.581 152.336 62.9084 152.663 62.9084 153.067V153.798C62.9084 154.202 62.581 154.529 62.1771 154.529H38.7771C38.3733 154.529 38.0459 154.202 38.0459 153.798V153.067ZM38.7771 157.454C38.3733 157.454 38.0459 157.782 38.0459 158.186V158.917C38.0459 159.321 38.3733 159.648 38.7771 159.648H49.0146C49.4185 159.648 49.7459 159.321 49.7459 158.917V158.186C49.7459 157.782 49.4185 157.454 49.0146 157.454H38.7771Z" fill="url(#paint0_linear)"/>
<rect x="33.2927" y="175.37" width="41.6813" height="52.65" rx="3.29062" stroke="#A8ADB3" stroke-width="2.19375"/>
<rect x="33.2302" y="-15.8365" width="41.8062" height="52.8063" rx="3.29062" stroke="#A8ADB3" stroke-width="2.19375"/>
<rect x="38.0001" y="30" width="11.7333" height="2.2" rx="0.73125" fill="#E8EAED"/>
<rect x="33.2302" y="47.9636" width="41.8062" height="52.8063" rx="3.29062" stroke="#A8ADB3" stroke-width="2.19375"/>
<rect x="38.0001" y="88.6667" width="24.9333" height="2.2" rx="0.73125" fill="#E8EAED"/>
<rect x="38.0001" y="93.8" width="11.7333" height="2.2" rx="0.73125" fill="#E8EAED"/>
<path fill-rule="evenodd" clip-rule="evenodd" d="M71.7459 112.86H36.5209C35.3093 112.86 34.3271 113.843 34.3271 115.054V161.279C34.3271 162.491 35.3093 163.473 36.5209 163.473H71.7459C72.9574 163.473 73.9396 162.491 73.9396 161.279V115.054C73.9396 113.843 72.9574 112.86 71.7459 112.86ZM36.5209 110.667C34.0977 110.667 32.1334 112.631 32.1334 115.054V161.279C32.1334 163.702 34.0977 165.667 36.5209 165.667H71.7459C74.169 165.667 76.1334 163.702 76.1334 161.279V115.054C76.1334 112.631 74.169 110.667 71.7459 110.667H36.5209ZM38 153.198C38 152.794 38.3274 152.467 38.7313 152.467H62.2021C62.606 152.467 62.9334 152.794 62.9334 153.198V153.935C62.9334 154.339 62.606 154.667 62.2021 154.667H38.7313C38.3274 154.667 38 154.339 38 153.935V153.198ZM38.7313 157.6C38.3274 157.6 38 157.927 38 158.331V159.069C38 159.473 38.3274 159.8 38.7313 159.8H49.0021C49.406 159.8 49.7334 159.473 49.7334 159.069V158.331C49.7334 157.927 49.406 157.6 49.0021 157.6H38.7313Z" fill="url(#paint1_linear)"/>
<rect x="33.2302" y="175.563" width="41.8062" height="52.8063" rx="3.29062" stroke="#A8ADB3" stroke-width="2.19375"/>
<rect x="86.0302" y="6.16353" width="41.8063" height="52.8063" rx="3.29062" stroke="#A8ADB3" stroke-width="2.19375"/>
<rect x="90.8" y="46.8667" width="24.9333" height="2.2" rx="0.73125" fill="#E8EAED"/>
<rect x="90.8" y="52" width="11.7333" height="2.2" rx="0.73125" fill="#E8EAED"/>
<rect x="86.0302" y="69.9636" width="41.8063" height="52.8063" rx="3.29062" stroke="#A8ADB3" stroke-width="2.19375"/>
<rect x="90.8" y="110.667" width="24.9333" height="2.2" rx="0.73125" fill="#E8EAED"/>
<rect x="90.8" y="115.8" width="11.7333" height="2.2" rx="0.73125" fill="#E8EAED"/>
<rect x="86.0302" y="133.764" width="41.8063" height="52.8063" rx="3.29062" stroke="#A8ADB3" stroke-width="2.19375"/>
<rect x="90.8" y="174.467" width="24.9333" height="2.2" rx="0.73125" fill="#E8EAED"/>
<rect x="90.8" y="179.6" width="11.7333" height="2.2" rx="0.73125" fill="#E8EAED"/>
<rect x="86.0302" y="197.563" width="41.8063" height="52.8063" rx="3.29062" stroke="#A8ADB3" stroke-width="2.19375"/>
<rect x="138.83" y="20.8303" width="41.8063" height="52.8062" rx="3.29062" stroke="#A8ADB3" stroke-width="2.19375"/>
<rect x="143.6" y="61.5334" width="24.9333" height="2.2" rx="0.73125" fill="#E8EAED"/>
<rect x="143.6" y="66.6667" width="11.7333" height="2.2" rx="0.73125" fill="#E8EAED"/>
<path fill-rule="evenodd" clip-rule="evenodd" d="M177.346 85.7272H142.121C140.909 85.7272 139.927 86.7094 139.927 87.9209V134.146C139.927 135.358 140.909 136.34 142.121 136.34H177.346C178.557 136.34 179.54 135.358 179.54 134.146V87.9209C179.54 86.7094 178.557 85.7272 177.346 85.7272ZM142.121 83.5334C139.698 83.5334 137.733 85.4978 137.733 87.9209V134.146C137.733 136.569 139.698 138.533 142.121 138.533H177.346C179.769 138.533 181.733 136.569 181.733 134.146V87.9209C181.733 85.4978 179.769 83.5334 177.346 83.5334H142.121ZM143.6 126.065C143.6 125.661 143.927 125.333 144.331 125.333H167.802C168.206 125.333 168.533 125.661 168.533 126.065V126.802C168.533 127.206 168.206 127.533 167.802 127.533H144.331C143.927 127.533 143.6 127.206 143.6 126.802V126.065ZM144.331 130.467C143.927 130.467 143.6 130.794 143.6 131.198V131.936C143.6 132.339 143.927 132.667 144.331 132.667H154.602C155.006 132.667 155.333 132.339 155.333 131.936V131.198C155.333 130.794 155.006 130.467 154.602 130.467H144.331Z" fill="url(#paint2_linear)"/>
<rect x="138.83" y="148.43" width="41.8063" height="52.8062" rx="3.29062" stroke="#A8ADB3" stroke-width="2.19375"/>
<rect x="143.6" y="189.134" width="24.9333" height="2.2" rx="0.73125" fill="#E8EAED"/>
<rect x="143.6" y="194.267" width="11.7333" height="2.2" rx="0.73125" fill="#E8EAED"/>
<rect x="191.63" y="35.4968" width="41.8063" height="52.8063" rx="3.29062" stroke="#A8ADB3" stroke-width="2.19375"/>
<rect x="196.4" y="76.2" width="24.9333" height="2.2" rx="0.73125" fill="#E8EAED"/>
<rect x="196.4" y="81.3333" width="11.7333" height="2.2" rx="0.73125" fill="#E8EAED"/>
<rect x="191.63" y="99.2968" width="41.8063" height="52.8063" rx="3.29062" stroke="#A8ADB3" stroke-width="2.19375"/>
<rect x="196.4" y="140" width="24.9333" height="2.2" rx="0.73125" fill="#E8EAED"/>
<rect x="196.4" y="145.133" width="11.7333" height="2.2" rx="0.73125" fill="#E8EAED"/>
<rect x="191.63" y="163.097" width="41.8063" height="52.8063" rx="3.29062" stroke="#A8ADB3" stroke-width="2.19375"/>
<rect x="196.4" y="203.8" width="24.9333" height="2.2" rx="0.73125" fill="#E8EAED"/>
<rect x="16" y="30" width="234.667" height="44" fill="url(#paint3_linear)"/>
<path d="M250.667 206L16 206L16 162L250.667 162V206Z" fill="url(#paint4_linear)"/>
</g>
<defs>
<linearGradient id="paint0_linear" x1="32.1959" y1="138.076" x2="76.0709" y2="138.076" gradientUnits="userSpaceOnUse">
<stop stop-color="#F8491B"/>
<stop offset="0.515625" stop-color="#F12F3F"/>
<stop offset="1" stop-color="#DC1860"/>
</linearGradient>
<linearGradient id="paint1_linear" x1="32.1334" y1="138.167" x2="76.1334" y2="138.167" gradientUnits="userSpaceOnUse">
<stop stop-color="#F8491B"/>
<stop offset="0.515625" stop-color="#F12F3F"/>
<stop offset="1" stop-color="#DC1860"/>
</linearGradient>
<linearGradient id="paint2_linear" x1="137.733" y1="111.033" x2="181.733" y2="111.033" gradientUnits="userSpaceOnUse">
<stop stop-color="#F8491B"/>
<stop offset="0.515625" stop-color="#F12F3F"/>
<stop offset="1" stop-color="#DC1860"/>
</linearGradient>
<linearGradient id="paint3_linear" x1="133.333" y1="30" x2="133.333" y2="74" gradientUnits="userSpaceOnUse">
<stop stop-color="white"/>
<stop offset="1" stop-color="white" stop-opacity="0"/>
</linearGradient>
<linearGradient id="paint4_linear" x1="133.333" y1="206" x2="133.333" y2="162" gradientUnits="userSpaceOnUse">
<stop stop-color="white"/>
<stop offset="1" stop-color="white" stop-opacity="0"/>
</linearGradient>
<clipPath id="clip0">
<rect width="234.667" height="176" fill="white" transform="translate(16 30)"/>
</clipPath>
</defs>
</svg>
